<?xml version="1.0" encoding="utf-8"?>
<!-- Generator: Adobe Illustrator 25.4.1, SVG Export Plug-In . SVG Version: 6.00 Build 0)  -->
<svg version="1.2" baseProfile="tiny" id="Layer_1" xmlns="http://www.w3.org/2000/svg" xmlns:xlink="http://www.w3.org/1999/xlink"
	 x="0px" y="0px" viewBox="0 0 188 61.4" overflow="visible" xml:space="preserve">
<g>
	<g>
		<path fill="#FFFFFF" d="M51.2,13.3c0.4-0.3,0.1-0.7-0.2-1l-0.2-0.2L50,12.9l0.2,0.2C50.5,13.4,50.8,13.7,51.2,13.3z"/>
		<path fill="#FFFFFF" d="M28.3,31.7l-1.2,0.1c-0.7,0.1-1.3,0.1-1.8,0.2h-1.6c0,1.2,0,9.5,0,10.6h1.1c1,0,1.7-0.1,2.3-0.2
			s1.3-0.1,2.2-0.1c0.3,0,0.5,0,0.8,0.1V31.9c-0.1,0-0.2-0.1-0.3-0.1C29.3,31.7,28.8,31.7,28.3,31.7z M26.8,33.4c0.3,0,0.6,0,1-0.1
			l0.6-0.1h0.4V34h-0.4h-0.6c-0.4,0-0.7,0.1-1,0.1H25v-0.8L26.8,33.4z M28.7,40.8h-0.3l-0.6,0.1c-0.4,0-0.7,0.1-1,0.1h-0.3H25v-0.7
			h1.5h0.2c0.3,0,0.6,0,1-0.1l0.6-0.1h0.4L28.7,40.8L28.7,40.8z M28.7,38.5h-0.3l-0.6,0.1c-0.4,0-0.7,0.1-1,0.1h-0.2H25V38h1.6h0.2
			c0.3,0,0.6,0,0.9-0.1l0.6-0.1h0.4L28.7,38.5z M28.7,36.2h-0.3l-0.6,0.1c-0.4,0-0.7,0.1-1,0.1H25v-0.8h1.8c0.3,0,0.6,0,1-0.1
			l0.6-0.1h0.4L28.7,36.2z"/>
		<path fill="#FFFFFF" d="M30.7,1.4C14.5,1.4,1.4,14.5,1.4,30.7s13.1,29.3,29.2,29.3s29.3-13.1,29.3-29.2c0,0,0,0,0,0
			C59.9,14.5,46.8,1.5,30.7,1.4z M58.7,28.4L57,29.5l1.8,0.9v0.9l-2.6-1.3L54.6,30v-0.8l1.6-0.1l2.4-1.6L58.7,28.4z M57.6,22.5
			l0.8,3.1l-0.6,0.2l-0.3-1.1L54,25.4l-0.2-0.8l3.4-0.8l-0.3-1.1L57.6,22.5z M56.8,20.5L53,22l-0.3-0.8l3.8-1.6L56.8,20.5z
			 M53.1,15.9c0.6-0.4,1.4-0.2,1.7,0.4c0,0.1,0.1,0.1,0.1,0.2c0.2,0.3,0.3,0.6,0.4,0.9l-0.6,0.3c0-0.3-0.1-0.6-0.3-0.8
			c-0.1-0.3-0.5-0.4-0.7-0.3c0,0,0,0-0.1,0C53,16.9,54.1,18.3,53,19c-0.6,0.4-1.4,0.1-1.8-0.5c0-0.1-0.1-0.1-0.1-0.2
			c-0.2-0.3-0.3-0.6-0.4-1l0.6-0.3c0,0.3,0.1,0.6,0.2,0.9c0.1,0.3,0.5,0.5,0.8,0.4C53.1,17.9,52,16.5,53.1,15.9L53.1,15.9z
			 M51.4,11.8c0.6,0.7,1.3,1.4,0.4,2.2c-0.4,0.3-0.9,0.3-1.3,0l0,0c0.1,0.2,0.1,0.4,0,0.6l-0.8,1.6l-0.6-0.7l0.7-1.2
			c0.2-0.2,0.2-0.5,0-0.7l-0.2-0.2l-1.3,1.1l-0.5-0.6l3.1-2.7L51.4,11.8z M48.9,9.3l-0.4,0.5l-1.2-1l-0.6,0.8l1.1,0.9L47.4,11
			l-1.1-0.9L45.5,11l1.3,1l-0.4,0.5l-1.9-1.5L47,7.8L48.9,9.3z M41.7,4.8l0.8,0.4l-0.5,3.4l0,0l2.4-2.4L45,6.5l-3,3.1L41,9.1
			L41.7,4.8z M38.8,3.8L39.5,4l-1.2,4l-0.8-0.2L38.8,3.8z M32.9,2.7l1,0.1L35,6.1l0,0L35.5,3l0.8,0.1l-0.6,4.1l-1-0.1l-1.1-3.3l0,0
			l-0.4,3.1l-0.8-0.1L32.9,2.7z M27.6,2.8l0.2,2.4c0.1,0.7,0.3,1.1,0.9,1.1s0.8-0.5,0.8-1.2l-0.2-2.4l0.8-0.1l0.2,2.6
			C30.5,6,30,6.7,29.2,6.9c-0.1,0-0.3,0-0.4,0c-0.8,0.2-1.5-0.3-1.7-1c0-0.1,0-0.3,0-0.4l-0.2-2.6L27.6,2.8z M21,4.4l1.2,3.3
			l1.5-0.5l0.2,0.6l-2.3,0.8l-1.4-3.9L21,4.4z M16.8,6.4l1.7,3l1.4-0.8l0.3,0.6L18,10.4l-2-3.6L16.8,6.4z M13.9,8.2l0.4,0.5l-1.3,1
			l0.6,0.8l1.1-0.9l0.4,0.5L14,11l0.7,0.9l1.2-1l0.4,0.5L14.6,13l-2.6-3.3L13.9,8.2z M8.4,13.5l3.4,0.8l0,0l-2.4-2l0.5-0.6l3.2,2.6
			L12.5,15l-3.4-0.8l0,0l2.4,2L11,16.9l-3.2-2.6L8.4,13.5z M5.4,18.2c0.4-0.8,0.9-1.7,1.9-1.2c0.4,0.2,0.6,0.7,0.4,1.2l0,0
			C7.9,18,8.1,18,8.4,18l1.7,0.2L9.7,19l-1.4-0.2c-0.3-0.1-0.5,0-0.6,0.3l-0.1,0.2L9,20.2l-0.4,0.7L5,19L5.4,18.2z M3.4,23.2
			c0.3-1,1.3-1.6,2.3-1.4c0.1,0,0.2,0.1,0.3,0.1c1.1,0.2,1.8,1.3,1.5,2.4c-0.2,1.1-1.3,1.8-2.4,1.5c-0.1,0-0.2,0-0.2-0.1
			c-1-0.1-1.8-1.1-1.6-2.1C3.3,23.5,3.3,23.3,3.4,23.2L3.4,23.2z M2.4,28.4c0-0.3,0.1-0.6,0.2-0.9l0.7,0.1C3.1,27.8,3,28.1,3,28.4
			c-0.1,0.8,0.5,1.4,1.3,1.5c0,0,0.1,0,0.1,0C5.2,30,5.9,29.5,6,28.7c0,0,0-0.1,0-0.1c0-0.3,0-0.6-0.1-0.9h0.7
			c0.1,0.3,0.1,0.6,0.1,0.9c0.1,1.1-0.8,2-1.9,2.1c-0.1,0-0.2,0-0.3,0c-1.1,0.1-2-0.8-2.1-1.9C2.4,28.7,2.4,28.6,2.4,28.4L2.4,28.4z
			 M3.3,37.3l4-1.2l0.6,2.2l-0.6,0.2l-0.4-1.4l-1,0.3l0.4,1.3L5.6,39l-0.4-1.3l-1.7,0.5L3.3,37.3z M5.3,43.2
			c-0.5-0.9-0.2-2.1,0.7-2.6c0.1-0.1,0.2-0.1,0.3-0.1C7.2,39.8,8.4,40.1,9,41c0.1,0.1,0.1,0.2,0.1,0.3c0.5,0.9,0.2,2.1-0.7,2.6
			c-0.1,0-0.2,0.1-0.3,0.1c-0.9,0.6-2.1,0.3-2.7-0.6C5.4,43.3,5.4,43.3,5.3,43.2L5.3,43.2z M8.7,48.5c-0.6-0.5-0.7-1.4-0.1-2
			c0.1-0.1,0.2-0.2,0.3-0.3l2.1-1.6l0.5,0.7l-1.9,1.5c-0.6,0.4-0.8,0.9-0.4,1.4s0.9,0.4,1.4,0l1.9-1.5l0.5,0.7l-2,1.6
			c-0.6,0.6-1.5,0.6-2,0C8.9,48.8,8.8,48.6,8.7,48.5L8.7,48.5z M13.5,53.2l0.7-3.4l0,0l-2,2.4l-0.6-0.5l2.6-3.2l0.8,0.6l-0.7,3.4
			l0,0l2-2.4l0.6,0.5l-2.6,3.2L13.5,53.2z M20.7,55.1c-0.7,1.5-1.9,1.3-3,0.8l-1-0.5l1.9-3.7l1,0.5C20.6,52.8,21.5,53.6,20.7,55.1
			L20.7,55.1z M25.5,55.1l-1.5-0.4l-0.3,1l1.4,0.3l-0.2,0.6l-1.4-0.4l-0.3,1.1l1.6,0.4l-0.2,0.6l-2.4-0.6l1.1-4l2.4,0.6L25.5,55.1z
			 M28.4,59l-1.1-0.1l0.2-4.1l1.1,0.1c1.3,0.1,2.4,0.6,2.3,2.2S29.6,59,28.4,59L28.4,59z M37.5,58.2L37,57.3l-1.6,0.3l-0.2,1
			l-0.8,0.2l0.6-4.4l0.9-0.2l2.5,3.7L37.5,58.2z M39.6,57.5l-0.3-0.8l0.8-0.3l0.3,0.8L39.6,57.5z M43.3,55.9l-1,0.5l-2-3.6l1-0.5
			c1.1-0.6,2.3-0.8,3.1,0.7S44.4,55.3,43.3,55.9L43.3,55.9z M46.1,54.3l-0.5-0.7l0.7-0.5l0.5,0.7L46.1,54.3z M30.7,53.7
			c-12.7,0-23-10.3-23-23s10.3-23,23-23s23,10.3,23,23C53.6,43.4,43.4,53.7,30.7,53.7L30.7,53.7z M50.2,50.9l-2.2-2.3l-0.1,0.9
			l-0.7-0.1l0.2-1.5l0.5-0.5l2.9,2.9L50.2,50.9z M53.2,47.5c-0.3,0.6-1,0.9-1.6,0.6c-0.1,0-0.1-0.1-0.2-0.1
			c-0.4-0.3-0.6-0.8-0.4-1.2l0,0c-0.4,0.2-0.8,0.2-1.2,0c-0.5-0.4-0.6-1.1-0.2-1.6c0,0,0.1-0.1,0.1-0.1c0.3-0.6,1-0.8,1.5-0.6
			c0,0,0.1,0,0.1,0c0.3,0.3,0.5,0.7,0.4,1.1l0,0c0.4-0.3,0.9-0.3,1.3,0c0.5,0.4,0.7,1.1,0.3,1.7C53.3,47.4,53.3,47.4,53.2,47.5z
			 M55.9,43.2c-0.5,1-1.5,0.8-2.3,0.4s-1.9-1.4-1.3-2.6c0.1-0.3,0.3-0.5,0.5-0.7l0.5,0.4c-0.2,0.2-0.4,0.3-0.5,0.6
			c-0.2,0.6,0.1,1.2,0.7,1.4c0,0,0,0,0,0l0,0c-0.2-0.3-0.2-0.6,0-0.9c0.2-0.6,0.9-0.9,1.5-0.6c0.1,0,0.1,0.1,0.2,0.1
			c0.7,0.2,1.1,1,0.8,1.6C56,43,55.9,43.1,55.9,43.2L55.9,43.2z M57.6,38.8c-0.1,0.3-0.2,0.6-0.4,0.9l-0.7-0.2
			c0.2-0.2,0.4-0.5,0.5-0.8c0.2-0.4,0-0.8-0.4-1c0,0,0,0-0.1,0c-0.4-0.1-0.9,0.1-1,0.5c0,0,0,0.1,0,0.2c-0.1,0.2-0.1,0.5-0.1,0.7
			l-2.1-0.7l0.7-2.3l0.6,0.2l-0.5,1.5l0.9,0.3c0-0.1,0-0.2,0.1-0.4c0.1-0.7,0.8-1.1,1.5-1c0.1,0,0.1,0,0.2,0.1c0.7,0.2,1.2,1,1,1.7
			C57.7,38.6,57.7,38.7,57.6,38.8L57.6,38.8z"/>
		<path fill="#FFFFFF" d="M17.5,34.8c0,8.4,9.5,13.9,12.5,15.5v-5.9c-0.1-0.1-0.2-0.2-0.3-0.3c-0.1-0.2-0.3-0.3-0.5-0.3
			c-0.7,0-1.4,0-2,0.1c-0.6,0.1-1.4,0.1-2.4,0.2s-1.8,0-1.9,0h-0.7v-2.3h-1.4V40h1.4v-1.8h-1.4v-1.7h1.4v-2.2h-1.4v-1.7h1.4v-1.9h3
			c0.5,0,1.1-0.1,1.7-0.1l1.2-0.1c0.6-0.1,1.2,0,1.8,0.1v-1.8H17.5C17.5,32,17.5,34.8,17.5,34.8z"/>
		<path fill="#FFFFFF" d="M5.1,24.9c0.6,0.3,1.3,0.2,1.6-0.4c0.3-0.6,0.2-1.3-0.4-1.6c-0.2-0.1-0.4-0.2-0.6-0.2
			c-0.6-0.3-1.4,0-1.7,0.6c0,0,0,0.1,0,0.1C3.9,24.1,4.3,24.8,5.1,24.9C5,24.9,5.1,24.9,5.1,24.9z"/>
		<path fill="#FFFFFF" d="M6.8,41.2c-0.7,0.2-1.1,0.9-0.9,1.6c0,0,0,0.1,0,0.1c0.4,0.6,1.1,0.8,1.7,0.5c0,0,0.1,0,0.1-0.1
			c0.7-0.2,1.1-0.9,0.8-1.6c0,0,0-0.1,0-0.1C8.2,41,7.4,40.8,6.8,41.2C6.8,41.2,6.8,41.2,6.8,41.2z"/>
		<path fill="#FFFFFF" d="M19.4,52.8L19,52.6l-1.3,2.5l0.4,0.2c0.7,0.3,1.6-0.1,1.8-0.9C20.2,53.9,19.9,53.2,19.4,52.8z"/>
		<path fill="#FFFFFF" d="M7,17.8c-0.4-0.2-0.7,0.1-0.9,0.5L6,18.5l1,0.5l0.1-0.2C7.3,18.5,7.4,18,7,17.8z"/>
		<path fill="#FFFFFF" d="M41.8,52.8L41.4,53l1.3,2.5l0.4-0.2c0.7-0.4,1-1.2,0.6-1.9C43.4,52.7,42.5,52.4,41.8,52.8z"/>
		<polygon fill="#FFFFFF" points="35.7,55.2 35.4,57 36.6,56.7 35.7,55.2 		"/>
		<path fill="#FFFFFF" d="M28.7,55.5h-0.5l-0.2,2.8h0.5c0.8,0,1.4-0.7,1.4-1.5C29.9,56.1,29.4,55.6,28.7,55.5z"/>
		<path fill="#FFFFFF" d="M50.3,45.3c-0.2,0.2-0.2,0.5,0,0.8c0,0,0,0,0,0c0.3,0.1,0.7,0.1,0.9-0.2c0.1-0.3,0-0.5-0.2-0.7
			C50.8,45,50.5,45.1,50.3,45.3C50.3,45.3,50.3,45.3,50.3,45.3z"/>
		<path fill="#FFFFFF" d="M54.9,42.1c-0.3-0.2-0.7-0.2-0.9,0.1c0,0,0,0,0,0c-0.1,0.3,0,0.7,0.4,0.8c0,0,0.1,0,0.1,0
			c0.3,0.2,0.7,0.1,0.9-0.1c0,0,0,0,0-0.1C55.4,42.6,55.3,42.2,54.9,42.1C54.9,42.1,54.9,42.1,54.9,42.1z"/>
		<path fill="#FFFFFF" d="M43.9,16.6H17.5c0,0.7,0,5.9,0,10.6h26.4C43.9,22.5,43.9,17.3,43.9,16.6z M28.5,23
			c-0.1,0.8-0.6,1.5-1.3,1.9c-1,0.7-2.6,1.6-2.7,1.6l-0.4,0.2l-0.4-0.2c-0.1,0-1.6-0.9-2.6-1.6c-0.7-0.4-1.2-1.1-1.3-1.9
			c0-0.1,0-2.8,0-5v-0.7h8.6V18C28.5,22.9,28.5,23,28.5,23z M41.8,23c-0.1,0.8-0.6,1.5-1.3,1.9c-1,0.7-2.6,1.6-2.7,1.6l-0.3,0.2
			l-0.3-0.2c-0.1,0-1.6-0.9-2.6-1.6c-0.7-0.4-1.2-1.1-1.4-1.9c0,0,0-0.2,0-5v-0.7h8.6V18C41.8,21.2,41.8,22.9,41.8,23L41.8,23z"/>
		<path fill="#FFFFFF" d="M51.7,46.5c-0.1,0.3,0,0.6,0.2,0.8c0.3,0.2,0.6,0.1,0.8-0.1c0,0,0,0,0,0c0.2-0.2,0.2-0.6,0-0.8
			c0,0,0,0,0,0C52.3,46.2,51.9,46.2,51.7,46.5z"/>
		<path fill="#FFFFFF" d="M34.6,18.7c0,0.5,0,1.1,0,1.6V21l2.4-1.7l0.4-0.3l2.9,2c0-0.7,0-1.5,0-2.2H34.6z"/>
		<path fill="#FFFFFF" d="M30.7,9.1c-11.9,0-21.6,9.7-21.6,21.6s9.7,21.6,21.6,21.6s21.6-9.7,21.6-21.6c0,0,0,0,0,0
			C52.3,18.7,42.6,9.1,30.7,9.1z M38.1,47.7c-2.2,1.7-4.6,3.2-7.1,4.4l-0.3,0.1l-0.3-0.1c-2.6-1.2-5-2.7-7.1-4.4
			c-4.8-3.8-7.3-8.3-7.3-12.8V15.1h29.3v20C45.3,39.5,42.8,43.9,38.1,47.7z"/>
		<path fill="#FFFFFF" d="M31.2,28.6v1.8h0.1c0.6-0.1,1.2-0.1,1.8-0.1l1.2,0.1c0.7,0.1,1.2,0.1,1.7,0.1h3v2.3h1.3v1.7h-1.3v2.2h1.3
			v1.7h-1.3v1.8h1.3v1.7h-1.3v2h-0.7c0,0-0.8,0-1.9,0S34.8,44,34.1,44c-0.7-0.1-1.4-0.1-2-0.1c-0.2,0-0.4,0.1-0.5,0.3
			c-0.1,0.1-0.2,0.2-0.3,0.3v5.9c2.9-1.5,12.7-7,12.7-15.2c0,0,0-3,0-6.6L31.2,28.6L31.2,28.6z"/>
		<path fill="#FFFFFF" d="M37.5,20.7l-2.8,2l0,0c0,0.1,0,0.1,0,0.1l0,0c0.1,0.3,0.4,0.6,0.7,0.8c0.6,0.5,1.6,1.1,2.1,1.4
			c0.5-0.3,1.5-0.9,2.2-1.3c0.3-0.2,0.5-0.4,0.6-0.7v-0.1l0,0c0,0,0-0.1,0-0.3L37.5,20.7z"/>
		<path fill="#FFFFFF" d="M34.2,31.9L33,31.7c-0.4,0-0.9,0-1.3,0c-0.1,0-0.3,0.1-0.4,0.2v10.6c0.3-0.1,0.6-0.2,0.9-0.2
			c0.9,0,1.5,0.1,2.2,0.1s1.3,0.1,2.3,0.2h1.1c0-1.2,0-9.5,0-10.6h-1.6C35.5,32,34.9,31.9,34.2,31.9z M36.3,41.1h-1.8
			c-0.3,0-0.6,0-1-0.1l-0.6-0.1h-0.3v-0.8H33l0.7,0.1c0.3,0,0.7,0.1,0.9,0.1h1.8L36.3,41.1z M32.6,37.8H33l0.7,0.1
			c0.3,0,0.7,0.1,0.9,0.1h0.8h1v0.8h-1h-0.8c-0.3,0-0.6,0-1-0.1l-0.6-0.1h-0.2L32.6,37.8z M36.3,36.5h-1.8c-0.3,0-0.6,0-1-0.1
			l-0.6-0.1h-0.3v-0.8H33l0.6,0.1c0.4,0,0.7,0.1,0.9,0.1h1.8L36.3,36.5z M36.3,34.2h-1.8c-0.3,0-0.6,0-1-0.1L32.9,34h-0.3v-0.8H33
			l0.6,0.1c0.4,0,0.7,0.1,0.9,0.1l1.8,0L36.3,34.2L36.3,34.2z"/>
		<path fill="#FFFFFF" d="M27.1,18.7h-5.7V20h5.7C27.1,19.5,27.1,19.1,27.1,18.7z"/>
		<path fill="#FFFFFF" d="M21.4,21.4c0,0.8,0,1.5,0,1.5c0.1,0.3,0.4,0.6,0.7,0.8c0.7,0.5,1.6,1,2.1,1.3c0.5-0.3,1.5-0.9,2.2-1.3
			c0.3-0.2,0.5-0.4,0.6-0.7v0l0,0c0-0.1,0-0.6,0-1.3c0-0.1,0-0.2,0-0.2C27.1,21.4,21.4,21.4,21.4,21.4z"/>
	</g>
	<g>
		<path fill="#B32226" d="M72.1,25.9c0.8-0.8,1.9-1.1,3-1.1h0.1c1.9,0,2.8,0.5,2.9,1.4v0.9h0.4c0-0.5,0.1-1,0.2-1.5
			c0.1-0.3,0.1-0.5,0.2-0.8l-1-0.3c-0.5-0.1-0.9-0.2-1.4-0.3c-0.5-0.1-1-0.1-1.4-0.1c-1.6-0.1-3.1,0.5-4.3,1.5
			c-1.1,1-1.7,2.4-1.7,3.9c-0.1,2.4,1.5,4.6,3.8,5.2c0.7,0.2,1.4,0.3,2.1,0.3c0.6,0,1.2-0.1,1.8-0.2c0.6-0.1,1.2-0.4,1.7-0.6
			l0.3-0.7l-0.1-0.2c-0.4,0.3-0.8,0.5-1.2,0.6c-0.7,0.2-1.4,0.3-2.1,0.3c-2.6,0.1-4.7-1.9-4.8-4.5c0-0.2,0-0.3,0-0.5
			c0-0.7,0.1-1.4,0.4-2.1C71.3,26.7,71.7,26.2,72.1,25.9z"/>
		<path fill="#B32226" d="M86.2,28.7c-0.7-0.7-1.6-1-2.5-1c-2-0.1-3.7,1.5-3.8,3.4c0,0.1,0,0.2,0,0.3c0,0.6,0.1,1.2,0.3,1.7
			c0.3,0.7,0.8,1.3,1.5,1.6c0.5,0.2,1,0.3,1.4,0.3c0.7,0,1.4-0.2,2-0.5c0.6-0.3,1.1-0.8,1.4-1.4c0.3-0.6,0.5-1.3,0.5-2
			C87.2,30.3,86.9,29.4,86.2,28.7z M85.2,34c-0.3,0.4-0.9,0.7-1.4,0.7c-0.5,0-0.9-0.2-1.2-0.4c-0.4-0.4-0.7-0.8-0.9-1.4
			c-0.2-0.6-0.3-1.2-0.3-1.9c-0.1-0.7,0.1-1.5,0.6-2.1c0.4-0.4,0.9-0.7,1.5-0.7c1,0,1.8,0.6,2.1,1.6c0.2,0.7,0.4,1.4,0.3,2
			C85.9,32.6,85.7,33.4,85.2,34L85.2,34z"/>
		<path fill="#B32226" d="M90.5,28.2c-0.2,0.2-0.3,0.3-0.4,0.5c-0.2,0.2-0.4,0.5-0.6,0.8c0-0.9,0-1.4,0-1.5c0,0,0-0.1,0-0.1
			c0,0-0.1,0-0.1,0c-0.1,0-0.1,0-0.2,0.1h-0.1c-0.7,0.3-1.4,0.4-2.1,0.5v0.4l0,0c0.3,0,0.7,0,1,0c0.1,0,0.1,0.1,0.2,0.1
			c0,0.2,0.1,0.3,0.1,0.5c0,0.5,0,0.9,0,1.3c0,0,0,0.9,0,2.9c0,0.2,0,0.5-0.2,0.7c-0.1,0-0.1,0.1-0.2,0.1H87v0.4c1.1,0,1.8,0,1.8,0
			c1.1,0,2,0,2.2,0v-0.4c-0.4,0-0.8-0.1-1.2-0.1c-0.1,0-0.2-0.1-0.2-0.3c0-0.2,0-0.4,0-0.6c0-0.9,0-1.5,0-1.8V31
			c0-0.5,0.1-1,0.4-1.4c0.2-0.3,0.6-0.5,1-0.5c0.4,0,0.9,0.3,1,0.7h0.3c0-0.5,0-1.1,0.1-1.7V28C91.8,27.6,91,27.7,90.5,28.2z"/>
		<path fill="#B32226" d="M100.2,34.1c0-0.4,0-0.9,0-1.3v-1.3c0-1,0-1.6-0.1-1.9c-0.1-0.7-0.5-1.3-1.2-1.6c-0.7-0.3-1.6-0.3-2.3,0
			l-1.4,1.2c0-0.7,0-1.1,0-1.2c0,0,0-0.1,0-0.1c0,0-0.1,0-0.1,0c-0.1,0-0.1,0-0.2,0.1l0,0c-0.7,0.3-1.4,0.4-2.2,0.5v0.4h0.1
			c0.3,0,0.6,0,0.9,0c0.1,0,0.1,0,0.2,0.1c0.1,0.2,0.1,0.3,0.1,0.5c0,0.5,0,0.9,0,1.3c0,0,0,2.2,0,3c0,0.2,0,0.4-0.1,0.5
			c-0.1,0.1-0.2,0.2-0.4,0.2h-0.8v0.4l0,0h2c0.8,0,1.4,0,1.7,0v-0.4h-0.8c-0.1,0-0.2-0.1-0.3-0.2c-0.1-0.2-0.1-0.4-0.1-0.5
			c0-0.8,0-3,0-3c0-0.4,0-0.8,0.2-1.2c0.2-0.3,0.4-0.5,0.6-0.6c0.3-0.2,0.6-0.3,1-0.3c0.7-0.1,1.4,0.4,1.7,1.1
			c0.1,0.5,0.1,1,0.1,1.5v1.3c0,0.3,0,1.1-0.1,2.3l0,0h1.3c0.5,0,1,0,1.2,0v-0.4h-0.8C100.4,34.5,100.2,34.3,100.2,34.1
			C100.2,34.1,100.2,34.1,100.2,34.1z"/>
		<path fill="#B32226" d="M106.7,28.1c-0.5-0.3-1-0.4-1.5-0.4c-0.8,0-1.5,0.3-2.2,0.7c-0.2,0.2-0.5,0.3-0.7,0.5
			c-0.2,0.3-0.4,0.6-0.5,1c-0.2,0.5-0.2,1-0.2,1.5c-0.1,1.3,0.6,2.5,1.7,3.1c0.5,0.3,1.2,0.4,1.8,0.4c0.6,0,1.2-0.1,1.7-0.4
			c0.3-0.1,0.5-0.3,0.8-0.4l0.2-0.5l-0.1-0.1c-0.3,0.2-0.7,0.4-1.1,0.5c-1.4,0.5-2.9-0.1-3.4-1.5c-0.2-0.4-0.2-0.9-0.2-1.3h2.4
			c0.5,0,1.1,0,1.6-0.1c0.3,0,0.7-0.1,1-0.1c0-0.2,0-0.3,0-0.5C108.1,29.6,107.6,28.7,106.7,28.1z M106.6,30.8c-0.2,0-0.6,0-1.3,0
			h-0.1c-0.8,0-1.8,0-2.2-0.1c0-0.7,0.1-1.4,0.5-1.9c0.3-0.4,0.8-0.6,1.3-0.6c1.1,0,1.7,0.7,1.7,2.3
			C106.7,30.6,106.6,30.7,106.6,30.8L106.6,30.8z"/>
		<path fill="#B32226" d="M111.1,34.4c-0.2-0.2-0.2-0.4-0.2-0.7c0-0.1,0-0.8,0-2.1v-5c0,0,0.1-2.6,0.1-2.6c0,0,0-0.1,0-0.1
			c0,0-0.1,0-0.1,0c0,0-0.1,0-0.2,0l0,0c-0.7,0.3-1.5,0.5-2.3,0.5v0.4c0.3,0,0.7,0,1,0c0.1,0,0.1,0.1,0.1,0.1c0.1,0.3,0.1,0.7,0.1,1
			c0,0.9,0,1.7,0,2.5v3.1c0,1.3,0,2,0,2.1c0,0.2,0,0.4-0.1,0.5c-0.1,0.1-0.2,0.2-0.4,0.2h-0.7v0.4l0,0c1.3,0,1.8,0,1.9,0
			c0.9,0,1.6,0,1.8,0v-0.4h-0.8C111.2,34.5,111.1,34.5,111.1,34.4z"/>
		<path fill="#B32226" d="M115.6,34.4c-0.2-0.2-0.2-0.4-0.2-0.7c0-0.1,0-0.8,0-2.1v-5c0,0,0.1-2.6,0.1-2.6c0,0,0-0.1,0-0.1
			c0,0-0.1,0-0.1,0c-0.1,0-0.3,0.1-0.4,0.1c-0.7,0.2-1.4,0.4-2.1,0.4v0.4c0.3,0,0.7,0,1,0c0.1,0,0.1,0.1,0.1,0.1
			c0.1,0.3,0.1,0.7,0.1,1c0,0.9,0,1.7,0,2.5v3.1c0,1.3,0,2,0,2.1c0,0.2,0,0.4-0.1,0.5c-0.1,0.1-0.2,0.2-0.4,0.2h-0.7v0.4
			c1.2,0,1.7,0,1.9,0c0.8,0,1.4,0,1.8,0v-0.4h-0.8C115.7,34.5,115.6,34.5,115.6,34.4z"/>
		<path fill="#B32226" d="M131.2,24.4c-1.2,0-1.9,0-2.1,0h-1.5v0.5c0.3,0,0.7,0,1,0.1c0.1,0,0.2,0.1,0.3,0.2
			c0.1,0.3,0.1,0.5,0.1,0.8c0,0.6,0,1.3,0,2v2.3c0.1,0.9,0,1.8-0.3,2.6c-0.3,0.6-0.8,1-1.4,1.2c-0.5,0.1-1,0.2-1.5,0.2
			c-0.8,0-1.5-0.2-2.2-0.5c-0.3-0.2-0.5-0.5-0.7-0.8c-0.2-0.7-0.2-1.4-0.2-2.1V28c0-1.3,0-2,0-2.1c0-0.2,0-0.5,0.1-0.7
			c0.1-0.1,0.1-0.1,0.2-0.2c0.3-0.1,0.7-0.1,1-0.1v-0.5c-1.1,0-2.2,0-2.4,0c-0.6,0-1.2,0-1.9,0v0.5c0.3,0,0.7,0,1,0.1
			c0.1,0,0.2,0.1,0.3,0.2c0.1,0.3,0.1,0.5,0.1,0.8c0,0.6,0,1.3,0,2v3.3c0,0.7,0,1.3,0.2,2c0.1,0.3,0.3,0.6,0.6,0.9
			c0.9,0.7,2.1,1.1,3.2,1c1.1,0.1,2.2-0.2,3.1-0.9c0.4-0.3,0.8-0.8,0.9-1.3c0.2-0.8,0.3-1.7,0.3-2.5V28c0-1.3,0-2,0.1-2.1
			c0-0.2,0-0.5,0.1-0.7c0.1-0.1,0.2-0.1,0.3-0.2c0.3-0.1,0.7-0.1,1-0.1v-0.5H131.2z"/>
		<path fill="#B32226" d="M138.1,34.1c0-0.4,0-0.9,0-1.3v-1.3c0-0.6,0-1.2-0.1-1.9c-0.1-0.7-0.5-1.3-1.2-1.6c-0.7-0.3-1.6-0.3-2.3,0
			l-1.4,1.2c0-0.7,0-1.1,0-1.2c0,0,0-0.1,0-0.1c0,0-0.1,0-0.1,0c-0.1,0-0.1,0-0.2,0.1l0,0c-0.7,0.3-1.4,0.5-2.2,0.5v0.4h0.1
			c0.3,0,0.6,0,0.9,0c0.1,0,0.1,0.1,0.2,0.1c0.1,0.2,0.1,0.3,0.1,0.5c0,0.5,0,0.9,0,1.3c0,0,0,2.2,0,3c0,0.2,0,0.4-0.1,0.5
			c-0.1,0.1-0.2,0.2-0.4,0.2h-0.7v0.4l0,0h2c0.9,0,1.5,0,1.6,0v-0.4h-0.8c-0.1,0-0.2-0.1-0.3-0.2c-0.1-0.2-0.1-0.4-0.1-0.5
			c0-0.8,0-3,0-3c0-0.4,0-0.8,0.2-1.2c0.1-0.3,0.4-0.5,0.6-0.6c0.3-0.2,0.6-0.3,1-0.3c0.7-0.1,1.4,0.4,1.6,1.1
			c0.1,0.5,0.1,1,0.1,1.5v1.3c0,0.3,0,1.1-0.1,2.3l0,0h1.4c0.6,0,1,0,1.2,0v-0.4h-0.8C138.2,34.5,138.1,34.3,138.1,34.1z"/>
		<path fill="#B32226" d="M141.8,26.2c0.5,0,0.8-0.4,0.8-0.8c0-0.2-0.1-0.4-0.2-0.6c-0.2-0.2-0.4-0.2-0.6-0.2
			c-0.5,0-0.8,0.4-0.8,0.8v0c0,0.2,0.1,0.4,0.2,0.6C141.4,26.1,141.6,26.2,141.8,26.2z"/>
		<path fill="#B32226" d="M142.7,34.4c-0.2-0.2-0.2-0.4-0.2-0.7c0-0.1,0-0.8,0-2.1v-1.3c0-0.6,0-1.4,0-2.4l-0.2-0.1
			c-0.8,0.3-1.6,0.6-2.4,0.6v0.4c0.3,0,0.7,0,1,0c0.1,0,0.1,0.1,0.2,0.2c0.1,0.4,0.1,0.9,0.1,1.3v1.3c0,1.3,0,2.1,0,2.1
			c0,0.2,0,0.4-0.1,0.5c-0.1,0.1-0.2,0.2-0.4,0.2H140v0.4l0,0c1.3,0,1.8,0,2,0c0.8,0,1.5,0,1.8,0v-0.4H143
			C142.9,34.5,142.8,34.5,142.7,34.4z"/>
		<path fill="#B32226" d="M151.7,28c-1,0-1.5,0-1.7,0h-1.1v0.4c0.3,0,0.6,0,0.9,0.1c0.1,0.1,0.1,0.3,0.1,0.4
			c-0.1,0.5-0.3,0.9-0.5,1.4c-0.4,0.9-0.6,1.5-0.7,1.7l-0.8,1.7l0,0l-0.7-1.7l-0.9-2.2c-0.1-0.3-0.3-0.7-0.3-1
			c0-0.1,0.1-0.2,0.1-0.2c0.3-0.1,0.6-0.1,0.9-0.1V28c-1,0-1.8,0-2,0h-1.5v0.4c0.2,0,0.4,0,0.6,0c0.2,0.1,0.4,0.3,0.5,0.6l2.2,5
			c0.1,0.2,0.2,0.5,0.4,1h0.8c0.7-1.7,1.2-2.7,1.3-3l0.7-1.5c0.5-1,0.7-1.5,0.8-1.6c0.1-0.1,0.2-0.3,0.3-0.4
			c0.2-0.1,0.4-0.1,0.6-0.1L151.7,28L151.7,28z"/>
		<path fill="#B32226" d="M156.6,28.1c-0.5-0.3-1-0.4-1.5-0.4c-0.8,0-1.5,0.3-2.2,0.7c-0.2,0.2-0.5,0.3-0.7,0.5
			c-0.2,0.3-0.4,0.6-0.5,1c-0.2,0.5-0.2,1-0.2,1.5c-0.1,1.3,0.6,2.5,1.7,3.1c0.5,0.3,1.2,0.4,1.8,0.4c0.6,0,1.2-0.1,1.7-0.4
			c0.3-0.1,0.5-0.3,0.8-0.4l0.2-0.5l-0.1-0.1c-0.3,0.2-0.7,0.4-1.1,0.5c-1.4,0.5-2.9-0.2-3.4-1.6c-0.2-0.4-0.2-0.9-0.1-1.3h2.4
			c0.5,0,1.1,0,1.6-0.1c0.3,0,0.7-0.1,1-0.1c0-0.2,0-0.3,0-0.5C158,29.6,157.5,28.6,156.6,28.1z M156.5,30.8c-0.2,0-0.6,0-1.3,0
			h-1.5h-0.8c0-0.7,0.1-1.4,0.5-1.9c0.3-0.4,0.8-0.6,1.4-0.6c1.1,0,1.7,0.7,1.7,2.3C156.5,30.6,156.5,30.7,156.5,30.8L156.5,30.8z"
			/>
		<path fill="#B32226" d="M162.3,28.2c-0.2,0.2-0.3,0.3-0.4,0.5c-0.3,0.4-0.5,0.6-0.6,0.8c0-1,0-1.4,0-1.5c0,0,0-0.1,0-0.1
			c0,0-0.1,0-0.1,0c-0.1,0-0.3,0.1-0.5,0.2c-0.6,0.2-1.3,0.3-1.9,0.4v0.4c0.3,0,0.7,0,1,0c0.1,0,0.1,0,0.2,0.1
			c0,0.2,0.1,0.3,0.1,0.5c0,0.5,0,0.9,0,1.3c0,0,0,0.9,0,2.9c0,0.2,0,0.5-0.2,0.7c-0.1,0-0.1,0.1-0.2,0.1h-0.9v0.4
			c1.1,0,1.7,0,1.8,0c1,0,1.8,0,2.2,0v-0.4c-0.4,0-0.8-0.1-1.2-0.1c-0.1,0-0.2-0.1-0.2-0.3c0-0.2,0-0.4,0-0.6c0-0.9,0-1.5,0-1.8V31
			c0-0.5,0.1-1,0.4-1.4c0.2-0.3,0.6-0.5,1-0.5c0.4,0,0.9,0.3,1,0.7h0.3c0-0.5,0-1.1,0.1-1.7V28C163.6,27.6,162.8,27.7,162.3,28.2z"
			/>
		<path fill="#B32226" d="M169.2,31.2c-0.4-0.2-0.8-0.3-1.3-0.4l-1.2-0.3c-0.3-0.1-0.7-0.3-0.8-0.6c-0.1-0.2-0.1-0.3-0.1-0.5
			c0-0.3,0.1-0.7,0.4-0.9c0.3-0.3,0.6-0.4,1-0.4c0.6-0.1,1.2,0.2,1.6,0.7c0.1,0.1,0.1,0.2,0.1,0.3c0,0.2,0.1,0.5,0.1,0.7h0.4
			c0-0.6,0-1.1,0.1-1.7c-0.3-0.1-0.7-0.3-1-0.3c-0.4-0.1-0.8-0.1-1.3-0.1c-0.4,0-0.8,0.1-1.2,0.3c-0.8,0.3-1.3,1-1.3,1.9
			c0,0.5,0.2,1,0.5,1.3c0.2,0.2,0.4,0.3,0.7,0.4c0.2,0.1,0.6,0.2,1.2,0.3c0.4,0.1,0.8,0.2,1.2,0.4c0.4,0.2,0.6,0.5,0.6,0.9
			c0,0.4-0.2,0.8-0.5,1.1c-0.4,0.3-0.8,0.4-1.2,0.4c-0.2,0-0.5,0-0.7,0c-0.3,0-0.6-0.2-0.9-0.4c-0.2-0.2-0.4-0.6-0.4-0.9
			c0-0.2,0-0.5,0-0.7h-0.4c0,0.7,0,1.1,0,1.3c0,0.4-0.1,0.7-0.1,0.8c0,0,0,0,0,0.1c0.2,0.1,0.4,0.1,0.6,0.2c0.6,0.1,1.1,0.2,1.7,0.2
			c0.8,0,1.6-0.2,2.2-0.7c0.5-0.4,0.8-1.1,0.8-1.7C170,32.1,169.7,31.5,169.2,31.2z"/>
		<path fill="#B32226" d="M173.6,34.4c-0.2-0.2-0.2-0.4-0.2-0.7c0-0.1,0-0.8,0-2.1v-1.3c0-0.6,0-1.4,0-2.4l-0.2-0.1
			c-0.8,0.3-1.6,0.6-2.4,0.6v0.4c0.3,0,0.7,0,1,0c0.1,0,0.1,0.1,0.2,0.2c0.1,0.4,0.1,0.9,0.1,1.3v1.3c0,1.3,0,2.1,0,2.1
			c0,0.2,0,0.4-0.1,0.5c-0.1,0.1-0.2,0.2-0.4,0.2h-0.7v0.4l0,0h2c0.9,0,1.6,0,1.8,0v-0.4h-0.8C173.8,34.5,173.7,34.5,173.6,34.4z"/>
		<path fill="#B32226" d="M173.2,25.9c0.2-0.2,0.2-0.4,0.2-0.6c0-0.2-0.1-0.4-0.2-0.6c-0.3-0.3-0.8-0.3-1.2,0
			c-0.3,0.3-0.3,0.8,0,1.2C172.4,26.2,172.9,26.2,173.2,25.9C173.2,25.9,173.2,25.9,173.2,25.9z"/>
		<path fill="#B32226" d="M177.3,29h1.9l0.1-0.6h-0.1c-1,0-1.4,0-1.6,0h-0.4c0.1-1.4,0.1-2.3,0.2-2.7l-0.2-0.1
			c-0.4,0.2-0.8,0.4-1.2,0.6v2.2c-0.4,0.2-0.8,0.3-1.1,0.5v0.3c0.8,0,1.1,0,1.1,0s0,3.2,0,3.4c0,0.4,0,0.8,0,1.1
			c0,0.3,0.1,0.5,0.2,0.8c0.2,0.3,0.4,0.5,0.7,0.7c0.2,0.1,0.4,0.1,0.6,0.1c0.4,0,0.7,0,1.1-0.2c0.2-0.2,0.4-0.4,0.7-0.6l-0.1-0.4
			c-0.1,0-0.3,0.1-0.4,0.1h-0.1c-0.2,0-0.3,0-0.5,0h-0.1c-0.3,0-0.6-0.1-0.8-0.4c-0.1-0.1-0.1-0.2-0.1-0.4c0-0.4,0-0.9,0-1.3
			L177.3,29z"/>
		<path fill="#B32226" d="M187.4,28.6c0.2-0.1,0.4-0.2,0.6-0.2L188,28c-0.9,0.1-1.9,0.1-2.9,0v0.4c0.3,0,0.6,0.1,0.9,0.2
			c0.1,0.1,0.2,0.3,0.1,0.4c-0.1,0.2-0.3,0.8-0.7,1.8c-0.4,1-0.7,1.6-0.8,2l-0.4,0.9c-0.4-0.8-1.2-2.8-1.2-2.8
			c-0.2-0.4-0.4-1-0.6-1.5c-0.1-0.2-0.1-0.3-0.1-0.5c0-0.1,0.1-0.2,0.2-0.3c0.3-0.1,0.6-0.1,0.9-0.1V28c-0.8,0-1.8,0-1.9,0
			c-0.5,0-1.1,0-1.6,0v0.4c0.2,0,0.5,0.1,0.7,0.1c0.1,0.1,0.2,0.2,0.3,0.4c0.2,0.5,0.5,1.1,0.9,2l1.2,2.9c0.2,0.6,0.4,1.1,0.6,1.5
			c-0.2,0.5-0.4,1.1-0.7,1.6c-0.1,0.3-0.3,0.5-0.4,0.7c-0.2,0.3-0.5,0.4-0.9,0.4h-0.2h-0.1c-0.2-0.1-0.3-0.2-0.4-0.3h-0.2l-0.4,1.1
			c0.3,0.2,0.6,0.3,0.9,0.2c0.7,0,1.3-0.3,1.7-0.8c0.3-0.4,0.5-0.9,0.8-1.4l1.7-4c0.8-1.7,1.3-2.8,1.6-3.3
			C186.9,29.2,187.1,28.9,187.4,28.6z"/>
		<path fill="#B32226" d="M30.7,0C13.7,0,0,13.7,0,30.7s13.7,30.7,30.7,30.7s30.7-13.7,30.7-30.7C61.3,13.7,47.6,0,30.7,0z
			 M30.7,59.9c-16.2,0-29.3-13.1-29.3-29.2S14.5,1.4,30.7,1.4s29.3,13.1,29.3,29.2c0,0,0,0,0,0C59.9,46.8,46.8,59.9,30.7,59.9z"/>
		<path fill="#B32226" d="M30.7,7.6c-12.7,0-23,10.3-23,23s10.3,23,23,23s23-10.3,23-23l0,0C53.6,18,43.4,7.7,30.7,7.6z M30.7,52.3
			c-11.9,0-21.6-9.7-21.6-21.6S18.7,9.1,30.7,9.1s21.6,9.7,21.6,21.6c0,0,0,0,0,0C52.3,42.6,42.6,52.3,30.7,52.3z"/>
		<path fill="#B32226" d="M26.8,34.1c0.3,0,0.6,0,1-0.1l0.6,0h0.3v-0.8h-0.4l-0.6,0.1c-0.4,0-0.7,0.1-1,0.1h-1.8v0.8L26.8,34.1z"/>
		<path fill="#B32226" d="M27.7,40.2c-0.4,0-0.7,0.1-1,0.1h-0.2H25V41h1.6h0.2c0.3,0,0.6,0,1-0.1l0.6-0.1h0.3v-0.8h-0.4L27.7,40.2z"
			/>
		<path fill="#B32226" d="M27.7,37.9c-0.4,0-0.7,0.1-0.9,0.1h-0.2L25,38v0.8h1.6h0.2c0.3,0,0.6,0,1-0.1l0.6-0.1h0.3v-0.8h-0.4
			L27.7,37.9z"/>
		<path fill="#B32226" d="M27.7,35.6c-0.4,0-0.7,0.1-1,0.1h-1.8v0.8h1.8c0.3,0,0.6,0,1-0.1l0.6-0.1h0.3v-0.8h-0.3L27.7,35.6z"/>
		<path fill="#B32226" d="M32.9,38.6l0.6,0.1c0.4,0,0.7,0.1,1,0.1h0.8h1V38h-1h-0.8c-0.3,0-0.6,0-0.9-0.1L33,37.8h-0.4v0.8H32.9
			L32.9,38.6z"/>
		<path fill="#B32226" d="M33.6,33.3L33,33.2h-0.4V34h0.3l0.6,0.1c0.4,0,0.7,0.1,1,0.1h1.8v-0.7l-1.8,0C34.3,33.4,34,33.3,33.6,33.3
			z"/>
		<path fill="#B32226" d="M33.6,40.2L33,40.1h-0.4v0.8h0.3l0.6,0.1c0.4,0,0.7,0.1,1,0.1h1.8v-0.8h-1.8C34.3,40.3,34,40.2,33.6,40.2z
			"/>
		<path fill="#B32226" d="M44.6,15.1H16v19.7c0,4.6,2.5,9,7.2,12.8c2.2,1.8,4.6,3.2,7.1,4.4l0.3,0.1l0.3-0.1
			c2.5-1.2,4.9-2.7,7.1-4.4c4.7-3.8,7.2-8.1,7.2-12.5v-20L44.6,15.1L44.6,15.1z M30,42.5c-0.2-0.1-0.5-0.1-0.8-0.1
			c-0.9,0-1.5,0.1-2.2,0.1s-1.3,0.1-2.3,0.2h-1.1c0-1.2,0-9.5,0-10.6h1.6c0.5,0,1.1-0.1,1.8-0.1l1.2-0.1c0.5-0.1,0.9-0.1,1.4,0
			c0.1,0,0.2,0.1,0.3,0.1L30,42.5L30,42.5z M30,30.4c-0.6-0.1-1.2-0.1-1.8-0.1L27,30.4c-0.7,0.1-1.2,0.1-1.7,0.1h-3v1.9h-1.5v1.7
			h1.4v2.2h-1.4v1.7h1.4V40h-1.4v1.7h1.4V44h0.7c0,0,0.8,0,1.9,0s1.8,0,2.4,0c0.7-0.1,1.4-0.1,2-0.1c0.2,0,0.4,0.1,0.5,0.3
			c0.1,0.1,0.2,0.2,0.3,0.3v5.9c-3.1-1.5-12.6-7-12.6-15.5c0,0,0-2.8,0-6.2H30V30.4L30,30.4z M17.5,27.2c0-4.7,0-9.9,0-10.6h26.4
			c0,0.7,0,5.9,0,10.6L17.5,27.2L17.5,27.2z M37.7,42.7h-1.1c-1,0-1.7-0.1-2.3-0.2s-1.3-0.1-2.2-0.1c-0.3,0-0.6,0.1-0.9,0.2V32
			c0.1-0.1,0.3-0.1,0.4-0.2c0.5-0.1,0.9-0.1,1.4-0.1l1.2,0.1c0.7,0.1,1.3,0.1,1.8,0.2h1.6C37.7,33.2,37.7,41.5,37.7,42.7z
			 M31.2,50.4v-5.9c0.1-0.1,0.2-0.2,0.3-0.3c0.1-0.2,0.3-0.3,0.5-0.3c0.7,0,1.4,0,2,0.1c0.7,0.1,1.4,0.1,2.4,0.2s1.8,0,1.9,0h0.7v-2
			h1.3v-1.7h-1.2v-1.8h1.3v-1.7h-1.3v-2.2h1.3v-1.7h-1.3v-2.3h-3c-0.5,0-1-0.1-1.7-0.1l-1.2-0.1c-0.6-0.1-1.2,0-1.8,0.1h-0.1v-1.8
			h12.7c0,3.6,0,6.6,0,6.6C43.9,43.3,34.1,48.9,31.2,50.4L31.2,50.4z"/>
		<path fill="#B32226" d="M28.5,17.3H20V18c0,2.2,0,4.9,0,5c0.1,0.8,0.6,1.5,1.3,1.9c1,0.7,2.5,1.5,2.6,1.6l0.4,0.2l0.4-0.2
			c0.1,0,1.7-0.9,2.7-1.6c0.7-0.4,1.2-1.1,1.2-1.9c0,0,0-0.2,0-5V17.3z M21.4,18.7h5.7c0,0.4,0,0.8,0,1.2h-5.7V18.7z M27.1,22.9
			L27.1,22.9L27.1,22.9c-0.1,0.4-0.3,0.6-0.6,0.8c-0.7,0.5-1.7,1-2.2,1.3c-0.5-0.3-1.5-0.9-2.1-1.3c-0.3-0.2-0.6-0.4-0.7-0.8
			c0-0.1,0-0.7,0-1.5h5.7c0,0.1,0,0.2,0,0.2C27.1,22.4,27.1,22.9,27.1,22.9z"/>
		<path fill="#B32226" d="M33.6,35.6L33,35.5h-0.4v0.8h0.3l0.6,0.1c0.4,0,0.7,0.1,1,0.1h1.8v-0.8h-1.8C34.3,35.7,34,35.7,33.6,35.6z
			"/>
		<path fill="#B32226" d="M41.8,17.3h-8.6V18c0,4.9,0,5,0,5c0.1,0.8,0.6,1.5,1.3,1.8c1,0.7,2.5,1.5,2.6,1.6l0.3,0.2l0.3-0.2
			c0.1,0,1.7-0.9,2.7-1.6c0.7-0.4,1.2-1,1.3-1.8c0-0.1,0-1.8,0-5V17.3z M40.3,22.9L40.3,22.9c-0.1,0.4-0.3,0.6-0.6,0.8
			c-0.7,0.5-1.7,1-2.2,1.3c-0.5-0.3-1.5-0.9-2.1-1.3c-0.3-0.2-0.6-0.4-0.7-0.8l0,0c0,0,0-0.1,0-0.1l0,0l2.8-2l2.9,1.9
			C40.3,22.9,40.3,23,40.3,22.9L40.3,22.9L40.3,22.9z M37.4,19L37,19.3L34.6,21v-0.7c0-0.5,0-1.1,0-1.6h5.7c0,0.7,0,1.5,0,2.2
			L37.4,19z"/>
		<path fill="#B32226" d="M6.7,28.7c0-0.3,0-0.6-0.1-0.9H5.9C6,28,6,28.3,6,28.6c0,0.7-0.6,1.3-1.4,1.3c-0.1,0-0.1,0-0.2,0
			c-0.8,0-1.4-0.6-1.4-1.3c0,0,0-0.1,0-0.1c0-0.3,0.1-0.6,0.3-0.9l-0.7-0.1c-0.1,0.3-0.2,0.6-0.2,0.9c-0.2,1.1,0.5,2.1,1.6,2.3
			c0.2,0,0.3,0,0.5,0c1.1,0.1,2.1-0.7,2.2-1.8C6.7,28.9,6.7,28.8,6.7,28.7z"/>
		<path fill="#B32226" d="M4.9,25.7C5.9,26,7,25.4,7.4,24.4S7.1,22.2,6,21.9c-1-0.4-2.1,0.1-2.5,1.1c0,0.1-0.1,0.2-0.1,0.3
			c-0.3,1,0.2,2.1,1.2,2.4C4.7,25.7,4.8,25.7,4.9,25.7z M4,23.4c0.2-0.7,1-1,1.6-0.7c0,0,0.1,0,0.1,0c0.7,0,1.2,0.5,1.2,1.2
			c0,0.7-0.5,1.2-1.2,1.2c-0.2,0-0.4-0.1-0.6-0.2C4.4,24.8,3.9,24.2,4,23.4C4,23.5,4,23.4,4,23.4z"/>
		<path fill="#B32226" d="M9,20.2l-1.5-0.8l0.1-0.2c0.1-0.3,0.4-0.4,0.6-0.3L9.7,19l0.4-0.8L8.4,18c-0.2,0-0.4,0-0.6,0.2l0,0
			c0.2-0.5,0-1-0.5-1.2c-1-0.5-1.5,0.4-1.9,1.2L5,19l3.7,1.9L9,20.2z M7,18.8v0.2l-1-0.5l0.1-0.2c0.2-0.4,0.4-0.7,0.9-0.5
			S7.3,18.5,7,18.8L7,18.8z"/>
		<polygon fill="#B32226" points="11.5,16.3 9.1,14.3 9.1,14.3 12.5,15.1 13.1,14.3 9.9,11.6 9.4,12.3 11.8,14.2 11.8,14.2 
			8.4,13.5 7.8,14.2 11,16.9 		"/>
		<polygon fill="#B32226" points="16.4,11.4 16,10.9 14.8,11.9 14,11 15.2,10.1 14.8,9.6 13.6,10.5 13,9.7 14.2,8.7 13.8,8.2 
			11.9,9.7 14.6,12.9 		"/>
		<polygon fill="#B32226" points="20.1,9.2 19.8,8.6 18.4,9.4 16.7,6.4 16,6.8 18,10.4 		"/>
		<polygon fill="#B32226" points="23.9,7.7 23.6,7.1 22.1,7.7 21,4.4 20.2,4.7 21.6,8.6 		"/>
		<path fill="#B32226" d="M28.8,6.9c0.8,0.1,1.5-0.5,1.6-1.3c0-0.1,0-0.3,0-0.4l-0.2-2.6l-0.8,0.1L29.5,5c0.1,0.7-0.1,1.2-0.8,1.2
			s-0.9-0.4-0.9-1.1l-0.2-2.3l-0.8,0.1L27,5.5c0,0.8,0.6,1.4,1.4,1.5C28.5,7,28.7,7,28.8,6.9z"/>
		<polygon fill="#B32226" points="33.5,3.8 33.5,3.8 34.7,7.1 35.7,7.2 36.2,3.1 35.5,3 35,6.1 35,6.1 33.9,2.8 32.9,2.7 32.3,6.8 
			33.1,6.9 		"/>
		
			<rect x="36.5" y="5.5" transform="matrix(0.2997 -0.954 0.954 0.2997 21.3858 40.8659)" fill="#B32226" width="4.1" height="0.8"/>
		<polygon fill="#B32226" points="45,6.5 44.3,6.1 41.9,8.5 41.9,8.5 42.5,5.2 41.7,4.8 41,9.1 42,9.5 		"/>
		<polygon fill="#B32226" points="46.4,12.6 46.8,12 45.5,11.1 46.2,10.1 47.4,11 47.8,10.5 46.6,9.6 47.3,8.8 48.5,9.8 48.9,9.3 
			47,7.8 44.5,11.1 		"/>
		<path fill="#B32226" d="M47.7,13.8l0.5,0.6l1.3-1.1l0.2,0.2c0.2,0.2,0.2,0.5,0,0.7l-0.7,1.2l0.6,0.7l0.8-1.6
			c0.1-0.2,0.1-0.4,0-0.6l0,0c0.4,0.3,0.9,0.3,1.3,0c0.9-0.8,0.2-1.5-0.4-2.2l-0.6-0.7L47.7,13.8z M51.1,12.3c0.3,0.3,0.5,0.7,0.2,1
			s-0.7,0-1-0.3L50,12.9l0.8-0.7L51.1,12.3z"/>
		<path fill="#B32226" d="M51.6,18c-0.2-0.3-0.3-0.7-0.2-1l-0.7,0.3c0.1,0.4,0.2,0.7,0.4,1c0.2,0.7,1,1,1.6,0.8
			c0.1,0,0.2-0.1,0.2-0.1c1.2-0.7,0-2.1,0.6-2.5c0.3-0.2,0.6-0.1,0.8,0.2c0,0,0,0,0,0.1c0.1,0.2,0.2,0.5,0.3,0.8l0.6-0.3
			c-0.1-0.3-0.2-0.6-0.4-0.9c-0.3-0.6-1-0.9-1.6-0.7c-0.1,0-0.1,0.1-0.2,0.1c-1.2,0.7,0,2.1-0.7,2.5C52.2,18.5,51.8,18.3,51.6,18
			C51.6,18,51.6,18,51.6,18z"/>
		
			<rect x="52.7" y="20.4" transform="matrix(0.926 -0.3775 0.3775 0.926 -3.8153 22.2041)" fill="#B32226" width="4.1" height="0.8"/>
		<polygon fill="#B32226" points="53.8,24.6 54,25.4 57.4,24.6 57.7,25.7 58.3,25.5 57.6,22.5 56.9,22.6 57.2,23.8 		"/>
		<polygon fill="#B32226" points="54.6,29.2 54.6,30 56.3,29.9 58.8,31.2 58.8,30.4 57,29.5 58.7,28.4 58.6,27.5 56.2,29.1 		"/>
		<polygon fill="#B32226" points="5.6,39 6.2,38.8 5.9,37.5 6.8,37.2 7.2,38.6 7.9,38.4 7.2,36.2 3.3,37.4 3.5,38.2 5.2,37.7 		"/>
		<path fill="#B32226" d="M9.2,41.3c-0.4-1-1.5-1.4-2.5-1c-0.1,0-0.2,0.1-0.3,0.1c-1,0.4-1.5,1.5-1.1,2.5c0,0.1,0.1,0.2,0.1,0.3
			c0.4,1,1.6,1.4,2.5,1c0.1,0,0.2-0.1,0.3-0.1c1-0.4,1.5-1.5,1.1-2.5C9.3,41.5,9.2,41.4,9.2,41.3z M7.8,43.3C7.2,43.7,6.4,43.6,6,43
			C6,43,6,43,5.9,42.9c-0.3-0.6,0-1.4,0.7-1.7c0,0,0.1,0,0.1,0c0.6-0.4,1.4-0.3,1.8,0.3c0,0,0,0,0,0.1C8.8,42.3,8.5,43,7.8,43.3
			C7.8,43.3,7.8,43.3,7.8,43.3L7.8,43.3z"/>
		<path fill="#B32226" d="M12.5,46.5L10.6,48c-0.6,0.4-1.1,0.5-1.4,0S9,47,9.6,46.7l1.9-1.5l-0.5-0.7l-2.1,1.7
			c-0.7,0.4-0.9,1.3-0.4,2c0.1,0.1,0.2,0.2,0.3,0.3c0.4,0.7,1.3,1,2,0.6c0.1-0.1,0.2-0.1,0.3-0.2l2.1-1.6L12.5,46.5z"/>
		<polygon fill="#B32226" points="16.3,50.2 14.4,52.5 14.4,52.5 15.1,49.2 14.3,48.5 11.7,51.7 12.3,52.2 14.3,49.8 14.3,49.8 
			13.6,53.2 14.3,53.9 17,50.7 		"/>
		<path fill="#B32226" d="M19.5,52.2l-1-0.5l-1.9,3.7l1,0.5c1.1,0.6,2.3,0.7,3-0.8S20.6,52.8,19.5,52.2z M20,54.7
			c-0.3,0.7-1.1,1-1.8,0.7c0,0,0,0-0.1,0l-0.4-0.2l1.3-2.5l0.4,0.2C20.1,53.2,20.4,54,20,54.7C20,54.7,20,54.7,20,54.7z"/>
		<polygon fill="#B32226" points="22.2,57.8 24.6,58.4 24.8,57.8 23.2,57.4 23.5,56.2 24.9,56.6 25.1,56 23.7,55.6 23.9,54.6 
			25.5,55.1 25.6,54.4 23.3,53.8 		"/>
		<path fill="#B32226" d="M28.6,54.8l-1.1-0.1l-0.2,4.1l1.1,0.1c1.3,0.1,2.4-0.3,2.5-1.9S29.8,54.9,28.6,54.8z M28.6,58.3h-0.5
			l0.2-2.8h0.5c0.8,0.1,1.3,0.9,1.2,1.6C29.8,57.8,29.2,58.3,28.6,58.3L28.6,58.3z"/>
		<path fill="#B32226" d="M35,54.5l-0.7,4.4l0.8-0.2l0.2-1l1.7-0.4l0.5,0.8l0.9-0.1L36,54.3L35,54.5z M35.4,57l0.2-1.8l0,0l0.9,1.5
			L35.4,57z"/>
		
			<rect x="39.3" y="56.6" transform="matrix(0.9404 -0.3401 0.3401 0.9404 -17.0336 16.9242)" fill="#B32226" width="0.8" height="0.8"/>
		<path fill="#B32226" d="M41.4,52.3l-1,0.5l2,3.6l1-0.5c1.1-0.6,1.9-1.5,1.1-3S42.5,51.7,41.4,52.3z M43.2,55.3l-0.4,0.2L41.4,53
			l0.4-0.2c0.7-0.3,1.6,0.1,1.8,0.8C43.9,54.2,43.7,54.9,43.2,55.3L43.2,55.3z"/>
		
			<rect x="45.8" y="53.3" transform="matrix(0.8221 -0.5693 0.5693 0.8221 -22.3406 35.8461)" fill="#B32226" width="0.8" height="0.8"/>
		<polygon fill="#B32226" points="47.3,47.9 47.2,49.5 47.8,49.5 47.9,48.7 50.2,50.9 50.8,50.3 47.8,47.4 		"/>
		<path fill="#B32226" d="M53.1,45.6c-0.4-0.3-0.9-0.3-1.3,0l0,0c0.1-0.4,0-0.9-0.4-1.1c-0.6-0.3-1.3-0.1-1.6,0.4c0,0,0,0.1,0,0.1
			c-0.4,0.4-0.5,1.1,0,1.6c0,0,0.1,0.1,0.1,0.1c0.4,0.2,0.8,0.2,1.2,0l0,0c-0.2,0.5,0,1,0.4,1.3c0.6,0.4,1.3,0.3,1.7-0.3
			c0-0.1,0.1-0.1,0.1-0.2c0.5-0.4,0.5-1.2,0.1-1.7C53.3,45.8,53.2,45.7,53.1,45.6z M51.2,45.9c-0.2,0.2-0.6,0.3-0.9,0.2
			c-0.2-0.2-0.2-0.5,0-0.8c0,0,0,0,0,0c0.1-0.2,0.4-0.3,0.7-0.1c0,0,0,0,0.1,0C51.3,45.4,51.3,45.7,51.2,45.9z M52.7,47.1
			c-0.2,0.3-0.6,0.3-0.8,0.2c0,0,0,0,0,0c-0.2-0.2-0.3-0.5-0.2-0.8c0.3-0.3,0.7-0.3,1-0.1C52.9,46.5,53,46.8,52.7,47.1
			C52.8,47.1,52.8,47.1,52.7,47.1z"/>
		<path fill="#B32226" d="M55.2,41.3c-0.5-0.3-1.2-0.2-1.6,0.3c0,0.1-0.1,0.1-0.1,0.2c-0.2,0.3-0.2,0.6,0,0.9l0,0
			c-0.6-0.2-0.9-0.8-0.7-1.4c0,0,0,0,0,0c0.1-0.2,0.3-0.4,0.5-0.6l-0.5-0.4c-0.2,0.2-0.4,0.4-0.5,0.7c-0.6,1.2,0.3,2.1,1.3,2.6
			s1.8,0.6,2.3-0.4c0.4-0.6,0.1-1.4-0.5-1.8C55.3,41.4,55.2,41.3,55.2,41.3z M55.3,42.9c-0.2,0.3-0.5,0.4-0.8,0.2c0,0,0,0-0.1,0
			c-0.3-0.1-0.5-0.5-0.4-0.8c0,0,0,0,0,0c0.2-0.3,0.6-0.4,0.9-0.2c0,0,0,0,0,0C55.3,42.2,55.4,42.6,55.3,42.9
			C55.3,42.9,55.3,42.9,55.3,42.9L55.3,42.9z"/>
		<path fill="#B32226" d="M56.8,36.8c-0.6-0.3-1.3,0-1.6,0.7c0,0.1-0.1,0.1-0.1,0.2c0,0.1-0.1,0.2-0.1,0.4l-0.8-0.3l0.5-1.5L54,36.1
			l-0.7,2.3l2.1,0.7c0-0.3,0-0.5,0.1-0.7c0-0.4,0.4-0.8,0.8-0.7c0.1,0,0.1,0,0.2,0c0.4,0.1,0.6,0.6,0.5,1c0,0,0,0.1,0,0.1
			c-0.1,0.3-0.2,0.5-0.4,0.8l0.7,0.2c0.2-0.3,0.3-0.6,0.4-0.9c0.3-0.7,0-1.5-0.7-1.9C56.9,36.9,56.8,36.9,56.8,36.8z"/>
	</g>
</g>
</svg>
