<svg clip-rule="evenodd" fill-rule="evenodd" stroke-linejoin="round" stroke-miterlimit="1.41421" viewBox="0 0 560 400" xmlns="http://www.w3.org/2000/svg"><path d="m224 89.145c-43.47 0-78.855 35.385-78.855 78.855s35.385 78.855 78.855 78.855 78.855-35.385 78.855-78.855-35.385-78.855-78.855-78.855zm0 154.035c-41.475 0-75.18-33.705-75.18-75.18s33.705-75.18 75.18-75.18 75.18 33.705 75.18 75.18-33.705 75.18-75.18 75.18zm0-134.4c-32.655 0-59.22 26.565-59.22 59.22s26.565 59.22 59.22 59.22 59.22-26.565 59.22-59.22-26.565-59.22-59.22-59.22zm0 114.765c-30.66 0-55.545-24.885-55.545-55.545s24.885-55.545 55.545-55.545 55.545 24.885 55.545 55.545-24.885 55.545-55.545 55.545zm-37.695-95.445v50.61c0 11.76 6.405 23.1 18.69 32.97 9.03 7.35 17.955 11.235 18.375 11.34l.735.315.735-.315c.42-.21 9.24-4.095 18.27-11.34 12.075-9.765 18.585-20.79 18.585-32.13v-51.45zm71.61 3.675v27.3h-67.935v-27.3zm-15.96 67.095h-2.73c-2.625-.105-4.305-.21-5.985-.42-1.785-.21-3.36-.315-5.67-.315-.945 0-1.575.21-2.205.525v-27.3c.21-.105.525-.315 1.05-.42 0 0 1.68-.315 3.465-.105l3.15.315c1.785.21 3.255.42 4.725.42h4.2zm-19.635-.315c-.525-.21-1.155-.42-1.89-.42-2.205 0-3.885.105-5.67.315-1.68.21-3.465.315-5.985.42h-2.73v-27.405h4.2c1.365 0 2.94-.21 4.725-.42l3.045-.315c1.89-.21 3.57.105 3.57.105.315.105.63.21.84.315zm-32.34-19.845v-15.96h32.34v4.62c-.21 0-2.31-.525-4.62-.21l-3.15.315c-1.68.21-3.15.315-4.515.42h-3.99-3.78v4.83h-3.57v4.41h3.57v5.775h-3.57v4.41h3.57v4.62h-3.57v4.41h3.57v5.985l1.785.105c.105 0 2.205.105 4.725.105 2.73-.105 4.515-.21 6.3-.42 1.68-.105 3.255-.315 5.25-.315.63 0 .84.21 1.155.735.21.21.42.525.84.84v15.015c-7.875-3.99-32.34-18.06-32.34-39.69zm35.385 39.9v-15.33c.42-.315.63-.63.84-.84.42-.525.63-.735 1.365-.735 2.1 0 3.57.105 5.25.315s3.57.315 6.3.42 4.725-.105 4.725-.105l1.785-.105v-5.04h3.255v-4.41h-3.255v-4.62h3.465v-4.41h-3.465v-5.775h3.255v-4.41h-3.255v-5.88h-3.675-3.99c-1.26 0-2.73-.21-4.41-.42l-3.15-.315c-2.415-.315-4.515.21-4.62.21s-.21 0-.315.105v-4.62h32.55v17.01c-.105 20.895-25.095 35.175-32.655 38.955zm-25.515-65.52c2.625 1.68 6.405 3.99 6.51 4.095l.945.525.945-.525c.21-.105 4.41-2.415 6.93-4.095 2.205-1.365 3.15-2.94 3.255-4.725v-12.915-1.89h-22.05v14.805c.21 1.68 1.365 3.255 3.465 4.725zm14.91-5.04c0 .84-1.05 1.575-1.575 1.89-1.785 1.155-4.41 2.73-5.775 3.465-1.26-.84-3.78-2.31-5.565-3.465-1.26-.945-1.785-1.575-1.785-1.89v-3.99h14.7v.63c.105 1.89.105 3.15 0 3.36zm0-10.815v3.15h-14.595v-3.15zm19.11 15.75c2.625 1.68 6.405 3.99 6.51 4.095l.945.525.945-.525c.21-.105 4.41-2.415 6.93-4.095 2.205-1.365 3.15-2.94 3.255-4.725v-12.915-1.89h-22.05v14.91c.21 1.575 1.365 3.15 3.465 4.62zm15.015-4.83c0 .735-1.05 1.47-1.575 1.785-1.785 1.155-4.41 2.73-5.775 3.465-1.26-.84-3.78-2.31-5.46-3.465-1.26-.945-1.785-1.575-1.785-1.89v-.42s5.67-4.095 7.245-5.25c1.365.945 5.985 3.99 7.455 4.935 0 .42 0 .63-.105.84 0-.105 0 0 0 0zm-14.7-11.025h14.7v5.775l-7.56-4.935-.945.84-6.195 4.515v-1.68c0-1.575 0-3.15 0-4.515zm-.315 37.8 4.62.105v1.995l-4.62-.105c-.84 0-1.575-.105-2.625-.21l-1.575-.21h-.84l-.105-1.89h1.05l1.575.21c1.05 0 1.89.105 2.52.105zm0 5.985 4.62.105v1.995l-4.62-.105c-.84 0-1.575-.105-2.625-.21l-1.575-.21h-.84l-.105-1.89h1.05l1.575.21c1.05 0 1.89.105 2.52.105zm-4.935 7.455-.105-1.995h1.05l1.68.21c.945.105 1.68.21 2.31.21l2.205.105 2.52.105v1.995l-2.52-.105-2.205-.105c-.735 0-1.575-.105-2.52-.21l-1.68-.21zm4.935 4.305 4.62.105v1.995l-4.62-.105c-.735 0-1.575-.105-2.52-.21 0 0-1.575-.21-1.68-.21h-.84l-.105-1.995h1.05l1.68.21c.945.105 1.785.21 2.415.21zm-24.57-15.75v-1.995l4.62-.105c.735 0 1.47-.105 2.52-.21l1.47-.21h.945v1.995h-.84l-1.47.21c-.945.105-1.89.21-2.625.21zm8.61 3.57h.945v1.995h-.84l-1.365.21c-.945.105-1.89.21-2.625.21l-4.62.105-.105-1.89 4.62-.105c.735 0 1.47-.105 2.52-.21-.105-.21 1.47-.315 1.47-.315zm0 5.88h.945v1.995h-.84l-1.575.21c-.945.105-1.785.21-2.52.21h-.525l-4.2.105v-1.995l4.2-.105h.525c.735 0 1.47-.105 2.415-.21zm0 5.985h.945v1.995h-.84l-1.47.21c-.945.105-1.89.21-2.625.21h-.42l-3.99.105v-1.995l3.99-.105h.735c.735 0 1.47-.105 2.52-.21-.315-.21 1.155-.21 1.155-.21zm-3.36-89.04-.63-6.72 2.1-.21.525 6.195c.21 1.785.84 2.94 2.415 2.73 1.575-.105 2.1-1.365 1.89-3.15l-.525-6.195 2.1-.21.63 6.72c.21 2.835-1.26 4.2-3.99 4.41-2.625.315-4.305-.84-4.515-3.57zm-32.025 19.11-6.72-8.19 4.725-3.885 1.05 1.26-3.15 2.625 1.68 2.1 2.835-2.415 1.05 1.26-2.835 2.415 1.89 2.31 3.15-2.625 1.05 1.26zm18.165-11.34-3.57-9.975 1.995-.735 3.045 8.4 3.885-1.365.63 1.575zm29.61-4.305-1.995-.315 1.365-10.5 2.625.315 2.835 8.4 1.05-7.875 1.995.315-1.365 10.5-2.625-.315-2.835-8.4zm-56.91 25.725-8.085-6.72 1.68-1.995 8.61 1.995-6.195-5.04 1.26-1.575 8.085 6.72-1.68 1.995-8.61-1.995 6.195 5.04zm-5.04 8.505-3.885-2.1.315-.63c.42-.84.84-.945 1.68-.84l3.465.525 1.05-2.1-4.515-.525c-.525 0-1.155 0-1.47.525.525-1.26-.105-2.52-1.155-3.045-2.625-1.365-3.78.945-4.83 2.94l-1.05 1.995 9.345 4.935zm-5.04-3.465-.315.63-2.52-1.365.315-.63c.525-.945 1.05-1.89 2.31-1.26 1.155.525.63 1.68.21 2.625zm117.285 6.195 9.87-4.095.84 1.995-9.87 3.99zm-36.96-34.23-1.995-.63 3.15-10.08 1.995.63zm48.51 40.74-.735-2.835 1.575-.42 1.995 7.875-1.575.42-.735-2.835-8.715 2.205-.525-2.1zm-2.415 13.65 6.3-4.2.105 2.52-4.41 2.73 4.515 2.31.105 2.205-6.615-3.36-4.2.21-.105-2.1zm-9.765-27.615c1.785-.945-1.26-4.515 1.68-6.3 2.1-1.155 3.675-.105 4.62 1.47.525.84.84 1.575.945 2.415l-1.575.735c-.105-.735-.315-1.365-.735-2.1-.42-.63-1.05-1.26-2.1-.735-1.575.945 1.365 4.515-1.68 6.3-1.995 1.155-3.675.105-4.725-1.785-.63-.945-.735-1.47-.945-2.52l1.785-.84c0 .84.21 1.68.63 2.415.42.63 1.26 1.365 2.1.945zm-10.71-10.08 3.255-2.835.42.525c.63.735.525 1.05.105 1.785l-1.68 3.15 1.575 1.785 1.995-3.99c.21-.525.42-1.05.105-1.575.945.945 2.415.84 3.255 0 2.205-1.995.42-3.885-1.05-5.67l-1.47-1.68-8.085 7.035zm6.615-5.985.525.525c.735.84 1.365 1.785.42 2.625-.945.945-1.89.105-2.625-.735l-.525-.525zm-22.89-6.615-2.31-1.155 1.575-11.13 1.995.945-1.365 8.61 6.195-6.3 1.89.945zm6.51 3.99 6.51-8.295 4.83 3.78-.945 1.26-3.15-2.52-1.575 2.1 2.94 2.31-.945 1.26-2.94-2.31-1.89 2.415 3.255 2.625-.945 1.26zm-68.04-1.785-5.145-9.345 1.89-.945 4.41 7.875 3.57-1.995.84 1.47zm56.805 118.335.735 1.995-1.995.735-.735-1.995zm-13.02-5.04-1.785 11.235 2.205-.525.42-2.625 4.2-.945 1.365 2.205 2.31-.525-6.3-9.555zm.945 6.51.63-4.515 2.415 3.99zm45.465-29.085c-.945-.735-2.1-.84-3.465 0 .315-1.155-.21-2.415-.945-2.835-1.365-1.05-3.045-.21-4.2 1.26-1.155 1.575-1.26 3.255.315 4.41.945.735 1.995.63 3.045 0-.315 1.365 0 2.415.945 3.045 1.68 1.26 3.465.525 4.62-1.155 1.26-1.68 1.47-3.465-.315-4.725zm-4.725.63c-.735.42-1.575.945-2.31.42s-.63-1.365-.105-1.995c.525-.735 1.155-.735 1.89-.315.42.525.63 1.365.525 1.89zm3.885 3.15c-.525.735-1.47.945-2.205.42s-.84-1.26-.63-2.1c.84-.525 1.68-.945 2.625-.315.63.42.63 1.26.21 1.995zm-62.16 19.845-2.835-.21-.63 10.605 2.835.21c3.255.21 6.195-.84 6.405-4.935.315-4.305-2.625-5.565-5.775-5.67zm3.57 5.46c-.105 2.31-1.89 3.57-3.675 3.465l-1.155-.105.42-7.245 1.155.105c1.785.105 3.36 1.47 3.255 3.78zm-64.575-80.325c3.15.945 5.775-.21 6.72-3.465.945-3.15-.84-5.565-3.885-6.405-3.045-.945-5.775.315-6.615 3.465-1.05 3.15.735 5.565 3.78 6.405zm-2.205-5.985c.63-1.995 2.73-2.31 4.515-1.785 1.89.525 3.465 1.785 2.835 3.885s-2.73 2.31-4.515 1.785c-1.89-.525-3.465-1.89-2.835-3.885zm96.075 74.13-2.625 1.365 5.04 9.345 2.625-1.365c2.835-1.575 4.83-3.885 2.835-7.56s-5.04-3.255-7.875-1.785zm4.515 7.77-1.05.63-3.465-6.3 1.05-.63c1.575-.945 3.675-.525 4.725 1.47 1.26 1.995.315 3.885-1.26 4.83zm-50.925-3.78 6.09 1.575-.42 1.575-3.99-1.05-.735 2.625 3.675.945-.42 1.575-3.675-.945-.84 2.835 4.095 1.05-.42 1.575-6.09-1.575zm59.115-1.785 1.155 1.785-1.785 1.155-1.155-1.785zm3.99-14.7 7.455 7.56-1.47 1.47-5.775-5.88-.315 2.31-1.68-.21.525-3.99zm-109.62-24.99-4.515 1.26-.63-2.1 10.185-2.94 1.575 5.67-1.575.525-1.05-3.675-2.52.735.945 3.465-1.575.525zm134.82 2.835c-.21.84-.63 1.68-.945 2.31l-1.785-.63c.42-.42.945-.945 1.05-1.89.315-1.05.21-2.31-1.155-2.73-1.26-.42-2.1.63-2.52 1.785-.21.63-.315 1.26-.315 1.89l-5.46-1.68 1.785-5.88 1.47.525-1.155 3.99 2.205.735c0-.315.105-.63.21-.945.42-1.365 1.68-3.045 4.305-2.31 1.89.42 2.94 2.31 2.31 4.83zm-136.815-20.58c-3.675-.21-5.565-2.625-5.355-6.09 0-.735.21-1.575.63-2.415l1.785.315c-.525.84-.735 1.47-.735 2.205-.105 2.205 1.47 3.57 3.675 3.78 2.205.105 3.885-1.05 3.99-3.255.105-.84-.105-1.785-.315-2.31h1.785c.105.84.21 1.575.21 2.415-.21 3.36-2.1 5.67-5.67 5.355zm12.18 27.09c-1.47-2.94-4.305-3.675-7.14-2.31s-4.2 4.095-2.73 7.035 4.41 3.675 7.245 2.205c2.835-1.26 4.095-3.885 2.625-6.93zm-3.57 5.145c-1.68.945-3.78.945-4.725-.945s.42-3.465 2.205-4.41c1.68-.84 3.78-.945 4.62.945s-.42 3.57-2.1 4.41zm121.695-5.04c-1.785-.945-3.36-.525-4.305 1.26-.42.84-.42 1.47 0 2.31-1.365-.84-2.73-2.1-1.785-3.675.315-.735.735-1.05 1.155-1.47l-1.365-.945c-.63.525-.945 1.05-1.26 1.785-1.47 3.045.945 5.355 3.465 6.51 2.205 1.05 4.62 1.575 6.09-.945.945-2.205.105-3.885-1.995-4.83zm.42 4.095c-.525.945-1.47.945-2.415.525-.945-.525-1.575-1.26-1.155-2.205.525-.945 1.47-.945 2.415-.42.945.42 1.68 1.26 1.155 2.1zm-108.675 10.92-5.355 4.305c-2.205 1.785-4.2 1.26-5.88-.945-1.68-2.1-1.785-4.2.525-5.88l5.355-4.2 1.26 1.68-4.725 3.78c-1.365 1.05-1.995 2.31-.945 3.57.945 1.26 2.31.945 3.675-.105l4.725-3.885zm16.695 12.81-2.625-1.26-4.725 9.555 2.625 1.26c2.835 1.47 5.985 1.785 7.875-1.995 1.785-3.78-.315-5.985-3.15-7.56zm1.05 6.615c-1.05 2.1-3.15 2.52-4.725 1.68l-1.05-.525 3.255-6.51 1.05.525c1.575.735 2.52 2.73 1.47 4.83zm-7.665-10.395-6.72 8.19-1.995-1.575 1.89-8.715-5.04 6.195-1.575-1.26 6.72-8.19 1.995 1.68-1.89 8.715 5.04-6.195z" fill="#c03641" fill-rule="nonzero" transform="matrix(1.90223 0 0 1.90223 -146.098 -119.574)"/></svg>